<?xml version="1.0" encoding="UTF-8" standalone="no"?>
<svg width="200px" height="200px" viewBox="0 0 200 200" version="1.1" xmlns="http://www.w3.org/2000/svg" xmlns:xlink="http://www.w3.org/1999/xlink">
    <title>Instagram App Icon</title>
    <defs>
        <linearGradient x1="0%" y1="0%" x2="100%" y2="100%" id="instagramGradient">
            <stop stop-color="#FCAF45" offset="0%"></stop>
            <stop stop-color="#E33963" offset="50%"></stop>
            <stop stop-color="#B9348F" offset="100%"></stop>
        </linearGradient>
    </defs>
    <g id="App-Icon" stroke="none" stroke-width="1" fill="none" fill-rule="evenodd">
        <rect id="Background" fill="url(#instagramGradient)" x="0" y="0" width="200" height="200" rx="40"></rect>
        <g id="Camera" transform="translate(40.000000, 40.000000)" fill="#FFFFFF" fill-rule="nonzero">
            <path d="M60,0 C26.8,0 0,26.8 0,60 C0,93.2 26.8,120 60,120 C93.2,120 120,93.2 120,60 C120,26.8 93.2,0 60,0 Z M60,20 C71,20 80,29 80,40 C80,51 71,60 60,60 C49,60 40,51 40,40 C40,29 49,20 60,20 Z M60,104 C45,104 31.8,96.2 24,84.4 C24.2,72.2 48,65.6 60,65.6 C71.8,65.6 95.8,72.2 96,84.4 C88.2,96.2 75,104 60,104 Z" id="Combined-Shape"></path>
        </g>
    </g>
</svg>
