<?xml version="1.0" encoding="UTF-8" standalone="no"?>
<svg width="840px" height="300px" viewBox="0 0 840 300" version="1.1" xmlns="http://www.w3.org/2000/svg" xmlns:xlink="http://www.w3.org/1999/xlink">
    <title>Instagram</title>
    <g id="Instagram-Logo" stroke="none" stroke-width="1" fill="none" fill-rule="evenodd">
        <path d="M64.1,236 C46.1,236 31.6,221.5 31.6,203.5 L31.6,96.5 C31.6,78.5 46.1,64 64.1,64 L171.1,64 C189.1,64 203.6,78.5 203.6,96.5 L203.6,203.5 C203.6,221.5 189.1,236 171.1,236 L64.1,236 Z M167.1,100.5 C167.1,94.2 161.9,89 155.6,89 C149.3,89 144.1,94.2 144.1,100.5 C144.1,106.8 149.3,112 155.6,112 C161.9,112 167.1,106.8 167.1,100.5 Z M117.6,115 C95.9,115 78.1,132.8 78.1,154.5 C78.1,176.2 95.9,194 117.6,194 C139.3,194 157.1,176.2 157.1,154.5 C157.1,132.8 139.3,115 117.6,115 Z M117.6,175 C106.3,175 97.1,165.8 97.1,154.5 C97.1,143.2 106.3,134 117.6,134 C128.9,134 138.1,143.2 138.1,154.5 C138.1,165.8 128.9,175 117.6,175 Z" id="Instagram-Icon" fill="#262626" fill-rule="nonzero"></path>
        <path d="M258.1,150.9 C258.1,176.5 258.1,202.1 258.1,227.7 C258.1,229.9 258.1,232.1 258.1,234.3 C258.1,235.1 257.9,235.3 257.1,235.3 C251.5,235.3 245.9,235.3 240.3,235.3 C239.5,235.3 239.3,235.1 239.3,234.3 C239.3,183.1 239.3,131.9 239.3,80.7 C239.3,79.9 239.5,79.7 240.3,79.7 C245.9,79.7 251.5,79.7 257.1,79.7 C257.9,79.7 258.1,79.9 258.1,80.7 C258.1,104.1 258.1,127.5 258.1,150.9 Z" id="I" fill="#262626" fill-rule="nonzero"></path>
        <path d="M291.8,157.5 C291.8,183.1 291.8,208.7 291.8,234.3 C291.8,235.1 291.6,235.3 290.8,235.3 C285.2,235.3 279.6,235.3 274,235.3 C273.2,235.3 273,235.1 273,234.3 C273,183.1 273,131.9 273,80.7 C273,79.9 273.2,79.7 274,79.7 C279.6,79.7 285.2,79.7 290.8,79.7 C291.6,79.7 291.8,79.9 291.8,80.7 C291.8,106.3 291.8,131.9 291.8,157.5 Z" id="I" fill="#262626" fill-rule="nonzero"></path>
        <path d="M325.5,157.5 C325.5,183.1 325.5,208.7 325.5,234.3 C325.5,235.1 325.3,235.3 324.5,235.3 C318.9,235.3 313.3,235.3 307.7,235.3 C306.9,235.3 306.7,235.1 306.7,234.3 C306.7,183.1 306.7,131.9 306.7,80.7 C306.7,79.9 306.9,79.7 307.7,79.7 C313.3,79.7 318.9,79.7 324.5,79.7 C325.3,79.7 325.5,79.9 325.5,80.7 C325.5,106.3 325.5,131.9 325.5,157.5 Z" id="I" fill="#262626" fill-rule="nonzero"></path>
        <path d="M359.2,157.5 C359.2,183.1 359.2,208.7 359.2,234.3 C359.2,235.1 359,235.3 358.2,235.3 C352.6,235.3 347,235.3 341.4,235.3 C340.6,235.3 340.4,235.1 340.4,234.3 C340.4,183.1 340.4,131.9 340.4,80.7 C340.4,79.9 340.6,79.7 341.4,79.7 C347,79.7 352.6,79.7 358.2,79.7 C359,79.7 359.2,79.9 359.2,80.7 C359.2,106.3 359.2,131.9 359.2,157.5 Z" id="I" fill="#262626" fill-rule="nonzero"></path>
        <path d="M392.9,157.5 C392.9,183.1 392.9,208.7 392.9,234.3 C392.9,235.1 392.7,235.3 391.9,235.3 C386.3,235.3 380.7,235.3 375.1,235.3 C374.3,235.3 374.1,235.1 374.1,234.3 C374.1,183.1 374.1,131.9 374.1,80.7 C374.1,79.9 374.3,79.7 375.1,79.7 C380.7,79.7 386.3,79.7 391.9,79.7 C392.7,79.7 392.9,79.9 392.9,80.7 C392.9,106.3 392.9,131.9 392.9,157.5 Z" id="I" fill="#262626" fill-rule="nonzero"></path>
        <path d="M426.6,157.5 C426.6,183.1 426.6,208.7 426.6,234.3 C426.6,235.1 426.4,235.3 425.6,235.3 C420,235.3 414.4,235.3 408.8,235.3 C408,235.3 407.8,235.1 407.8,234.3 C407.8,183.1 407.8,131.9 407.8,80.7 C407.8,79.9 408,79.7 408.8,79.7 C414.4,79.7 420,79.7 425.6,79.7 C426.4,79.7 426.6,79.9 426.6,80.7 C426.6,106.3 426.6,131.9 426.6,157.5 Z" id="I" fill="#262626" fill-rule="nonzero"></path>
        <path d="M460.3,157.5 C460.3,183.1 460.3,208.7 460.3,234.3 C460.3,235.1 460.1,235.3 459.3,235.3 C453.7,235.3 448.1,235.3 442.5,235.3 C441.7,235.3 441.5,235.1 441.5,234.3 C441.5,183.1 441.5,131.9 441.5,80.7 C441.5,79.9 441.7,79.7 442.5,79.7 C448.1,79.7 453.7,79.7 459.3,79.7 C460.1,79.7 460.3,79.9 460.3,80.7 C460.3,106.3 460.3,131.9 460.3,157.5 Z" id="I" fill="#262626" fill-rule="nonzero"></path>
        <path d="M494,157.5 C494,183.1 494,208.7 494,234.3 C494,235.1 493.8,235.3 493,235.3 C487.4,235.3 481.8,235.3 476.2,235.3 C475.4,235.3 475.2,235.1 475.2,234.3 C475.2,183.1 475.2,131.9 475.2,80.7 C475.2,79.9 475.4,79.7 476.2,79.7 C481.8,79.7 487.4,79.7 493,79.7 C493.8,79.7 494,79.9 494,80.7 C494,106.3 494,131.9 494,157.5 Z" id="I" fill="#262626" fill-rule="nonzero"></path>
        <path d="M527.7,157.5 C527.7,183.1 527.7,208.7 527.7,234.3 C527.7,235.1 527.5,235.3 526.7,235.3 C521.1,235.3 515.5,235.3 509.9,235.3 C509.1,235.3 508.9,235.1 508.9,234.3 C508.9,183.1 508.9,131.9 508.9,80.7 C508.9,79.9 509.1,79.7 509.9,79.7 C515.5,79.7 521.1,79.7 526.7,79.7 C527.5,79.7 527.7,79.9 527.7,80.7 C527.7,106.3 527.7,131.9 527.7,157.5 Z" id="I" fill="#262626" fill-rule="nonzero"></path>
        <path d="M561.4,157.5 C561.4,183.1 561.4,208.7 561.4,234.3 C561.4,235.1 561.2,235.3 560.4,235.3 C554.8,235.3 549.2,235.3 543.6,235.3 C542.8,235.3 542.6,235.1 542.6,234.3 C542.6,183.1 542.6,131.9 542.6,80.7 C542.6,79.9 542.8,79.7 543.6,79.7 C549.2,79.7 554.8,79.7 560.4,79.7 C561.2,79.7 561.4,79.9 561.4,80.7 C561.4,106.3 561.4,131.9 561.4,157.5 Z" id="I" fill="#262626" fill-rule="nonzero"></path>
        <path d="M595.1,157.5 C595.1,183.1 595.1,208.7 595.1,234.3 C595.1,235.1 594.9,235.3 594.1,235.3 C588.5,235.3 582.9,235.3 577.3,235.3 C576.5,235.3 576.3,235.1 576.3,234.3 C576.3,183.1 576.3,131.9 576.3,80.7 C576.3,79.9 576.5,79.7 577.3,79.7 C582.9,79.7 588.5,79.7 594.1,79.7 C594.9,79.7 595.1,79.9 595.1,80.7 C595.1,106.3 595.1,131.9 595.1,157.5 Z" id="I" fill="#262626" fill-rule="nonzero"></path>
        <path d="M628.8,157.5 C628.8,183.1 628.8,208.7 628.8,234.3 C628.8,235.1 628.6,235.3 627.8,235.3 C622.2,235.3 616.6,235.3 611,235.3 C610.2,235.3 610,235.1 610,234.3 C610,183.1 610,131.9 610,80.7 C610,79.9 610.2,79.7 611,79.7 C616.6,79.7 622.2,79.7 627.8,79.7 C628.6,79.7 628.8,79.9 628.8,80.7 C628.8,106.3 628.8,131.9 628.8,157.5 Z" id="I" fill="#262626" fill-rule="nonzero"></path>
        <path d="M662.5,157.5 C662.5,183.1 662.5,208.7 662.5,234.3 C662.5,235.1 662.3,235.3 661.5,235.3 C655.9,235.3 650.3,235.3 644.7,235.3 C643.9,235.3 643.7,235.1 643.7,234.3 C643.7,183.1 643.7,131.9 643.7,80.7 C643.7,79.9 643.9,79.7 644.7,79.7 C650.3,79.7 655.9,79.7 661.5,79.7 C662.3,79.7 662.5,79.9 662.5,80.7 C662.5,106.3 662.5,131.9 662.5,157.5 Z" id="I" fill="#262626" fill-rule="nonzero"></path>
        <path d="M696.2,157.5 C696.2,183.1 696.2,208.7 696.2,234.3 C696.2,235.1 696,235.3 695.2,235.3 C689.6,235.3 684,235.3 678.4,235.3 C677.6,235.3 677.4,235.1 677.4,234.3 C677.4,183.1 677.4,131.9 677.4,80.7 C677.4,79.9 677.6,79.7 678.4,79.7 C684,79.7 689.6,79.7 695.2,79.7 C696,79.7 696.2,79.9 696.2,80.7 C696.2,106.3 696.2,131.9 696.2,157.5 Z" id="I" fill="#262626" fill-rule="nonzero"></path>
        <path d="M729.9,157.5 C729.9,183.1 729.9,208.7 729.9,234.3 C729.9,235.1 729.7,235.3 728.9,235.3 C723.3,235.3 717.7,235.3 712.1,235.3 C711.3,235.3 711.1,235.1 711.1,234.3 C711.1,183.1 711.1,131.9 711.1,80.7 C711.1,79.9 711.3,79.7 712.1,79.7 C717.7,79.7 723.3,79.7 728.9,79.7 C729.7,79.7 729.9,79.9 729.9,80.7 C729.9,106.3 729.9,131.9 729.9,157.5 Z" id="I" fill="#262626" fill-rule="nonzero"></path>
        <path d="M763.6,157.5 C763.6,183.1 763.6,208.7 763.6,234.3 C763.6,235.1 763.4,235.3 762.6,235.3 C757,235.3 751.4,235.3 745.8,235.3 C745,235.3 744.8,235.1 744.8,234.3 C744.8,183.1 744.8,131.9 744.8,80.7 C744.8,79.9 745,79.7 745.8,79.7 C751.4,79.7 757,79.7 762.6,79.7 C763.4,79.7 763.6,79.9 763.6,80.7 C763.6,106.3 763.6,131.9 763.6,157.5 Z" id="I" fill="#262626" fill-rule="nonzero"></path>
        <path d="M797.3,157.5 C797.3,183.1 797.3,208.7 797.3,234.3 C797.3,235.1 797.1,235.3 796.3,235.3 C790.7,235.3 785.1,235.3 779.5,235.3 C778.7,235.3 778.5,235.1 778.5,234.3 C778.5,183.1 778.5,131.9 778.5,80.7 C778.5,79.9 778.7,79.7 779.5,79.7 C785.1,79.7 790.7,79.7 796.3,79.7 C797.1,79.7 797.3,79.9 797.3,80.7 C797.3,106.3 797.3,131.9 797.3,157.5 Z" id="I" fill="#262626" fill-rule="nonzero"></path>
    </g>
</svg>
