<?xml version="1.0" encoding="UTF-8" standalone="no"?>
<svg width="300px" height="300px" viewBox="0 0 300 300" version="1.1" xmlns="http://www.w3.org/2000/svg" xmlns:xlink="http://www.w3.org/1999/xlink">
    <title>Instagram Splash Screen</title>
    <defs>
        <linearGradient x1="0%" y1="0%" x2="100%" y2="100%" id="instagramGradient">
            <stop stop-color="#FCAF45" offset="0%"></stop>
            <stop stop-color="#E33963" offset="50%"></stop>
            <stop stop-color="#B9348F" offset="100%"></stop>
        </linearGradient>
    </defs>
    <g id="Splash-Screen" stroke="none" stroke-width="1" fill="none" fill-rule="evenodd">
        <rect id="Background" fill="#FFFFFF" x="0" y="0" width="300" height="300"></rect>
        <g id="App-Icon" transform="translate(100.000000, 100.000000)">
            <rect id="Icon-Background" fill="url(#instagramGradient)" x="0" y="0" width="100" height="100" rx="20"></rect>
            <g id="Camera" transform="translate(20.000000, 20.000000)" fill="#FFFFFF" fill-rule="nonzero">
                <path d="M30,0 C13.4,0 0,13.4 0,30 C0,46.6 13.4,60 30,60 C46.6,60 60,46.6 60,30 C60,13.4 46.6,0 30,0 Z M30,10 C35.5,10 40,14.5 40,20 C40,25.5 35.5,30 30,30 C24.5,30 20,25.5 20,20 C20,14.5 24.5,10 30,10 Z M30,52 C22.5,52 15.9,48.1 12,42.2 C12.1,36.1 24,33 30,33 C35.9,33 47.9,36.1 48,42.2 C44.1,48.1 37.5,52 30,52 Z" id="Combined-Shape"></path>
            </g>
        </g>
    </g>
</svg>
